<?xml version="1.0" encoding="UTF-8"?>
<svg id="Layer_1" data-name="Layer 1" xmlns="http://www.w3.org/2000/svg" viewBox="0 0 1049.62 206.2">
  <path d="M1049.62,88.6h-16.16V27.2c-.34-.05-.69-.09-1.03-.14-2.45,10.73-4.9,21.47-7.35,32.2-1.96,8.57-6.7,29.73-6.7,29.73h-16.38s-1.83-8.32-2.56-11.61c-3.76-16.76-7.6-33.5-12.34-50.15v61.36h-14.74V10.92c7.6,0,15.21-.13,22.79,.18,.85,.03,1.99,2.41,2.35,3.85,4.44,17.89,13.47,54.94,14.51,55.67,4.35-19.73,8.71-39.45,13.3-60.24h24.32V88.6Z"/>
  <path d="M352.61,47.15c10.34,0,19.88-.13,29.41,.16,1.29,.04,3.32,2.06,3.63,3.47,7.21,31.99,14.22,64.02,21.28,96.04,.27,1.23,.61,2.44,1.14,4.55,7.33-35.16,14.45-69.32,21.64-103.82h31.55c7.16,34.26,14.32,68.59,21.46,102.77,5.12-21.73,10.22-43.5,15.38-65.25,2.69-11.35,5.58-22.65,8.21-34.01,.69-2.98,2-4.06,5.17-3.98,8.67,.22,17.35,.08,26.58,.08-.27,1.68-.34,2.96-.69,4.17-13.19,45.28-26.44,90.54-39.53,135.84-.99,3.42-2.56,4.47-6.04,4.3-6.29-.29-12.62-.27-18.92-.01-3.67,.15-5.24-.8-6.03-4.71-6.81-33.8-13.91-67.55-20.93-101.31-.16-.79-.38-1.57-1.67-2.48-7.02,35.95-14.04,71.89-21.17,108.41-8.9,0-17.72,.16-26.53-.19-1.15-.05-2.73-2.57-3.21-4.2-9.5-32.09-18.87-64.22-28.27-96.34-3.65-12.49-7.33-24.98-10.97-37.47-.51-1.75-.88-3.54-1.49-5.99Z"/>
  <path d="M136.46,149.54c-8.16,30.06-34.79,48.65-66.9,47.14-7.44-.35-15.13-.93-22.17-3.09-22.83-7-36.15-23.46-42.22-45.71-5.08-18.61-4.88-37.59-.08-56.27,7.69-29.92,33.77-48.34,66.16-48.59,42.61-.33,65.78,29.72,68.6,65.27,.31,3.88,.37,7.78,.54,11.67,.3,.05-1.33,20.04-3.92,29.58Zm-26.09-29.73c.12-12.78-2.43-24.88-9.56-35.72-13.61-20.69-46.16-21.13-59.17-.07-14.02,22.71-13.68,46.6-1.41,70.05,12.7,24.28,49.83,21.81,62.17-.62,5.8-10.54,8.13-21.77,7.98-33.64Z"/>
  <path d="M651.03,192.58h-28.15v-5.57c0-18.78,.03-37.56-.03-56.34,0-2.86-.15-5.76-.64-8.57-1.8-10.23-5.97-14.67-14.1-15.33-11.78-.96-19.64,3.22-22.52,13.06-1.54,5.27-2.02,10.98-2.11,16.5-.26,16.75-.1,33.5-.1,50.25,0,1.84,0,3.67,0,5.9h-28.08V49.05h28.09v48.8c5.46-6.77,11.69-11.31,19.61-13.91,18.42-6.05,47.17,5.09,47.53,31.89,.33,24.86,.61,49.72,.89,74.58,0,.63-.22,1.27-.39,2.17Z"/>
  <path d="M899.94,146.99h-78.03c-1.55,11.89,5.8,21.73,14.12,24.89,11.89,4.52,23.19,1.85,29.9-7.01,1.17-1.54,3.63-2.88,5.56-2.96,7.98-.33,15.99-.14,25.68-.14-3.11,5.56-5.2,10.53-8.36,14.71-11.5,15.23-27.54,20.75-46.16,20.26-8.97-.23-17.54-1.95-25.59-6.09-16.19-8.32-24.75-21.53-26.4-39.48-1.23-13.32-.66-26.34,4.65-38.85,6.24-14.72,17.18-24.09,32.73-28.04,11.97-3.04,24-2.71,35.88,.41,14.63,3.84,24.78,12.84,30.61,26.76,4.67,11.15,6.09,22.73,5.4,35.53Zm-30.1-19.01c.05-13.7-9.83-22.9-24.02-22.84-12.41,.05-23.77,10.96-23.71,22.84h47.74Z"/>
  <path d="M192.07,106.37v86.19h-28.5V106.69h-13.16v-20.29h13.97c.37-6.01,.57-11.54,1.09-17.05,1.3-13.93,7.7-20.78,21.73-22.47,7.7-.93,15.52-.89,23.6-1.3v22.66c-5.68,1.81-13.25-1.75-16.84,4.71-1.98,3.55-1.77,8.3-2.7,13.28h19.5v20.14h-18.68Z"/>
  <path d="M278.82,46.01v22.31c-5.81,1.63-13.31-1.79-16.96,4.69-1.98,3.53-1.8,8.26-2.74,13.22h19.6v20.26h-18.7v86h-28.41V106.82h-13.44v-20.18h14.42c.11-2.37,.16-4.15,.29-5.93,.36-5.05,.34-10.16,1.2-15.13,1.89-10.89,7.94-16.66,18.79-18.52,3.01-.52,6.08-.92,9.13-1.01,5.43-.16,10.86-.05,16.81-.05Z"/>
  <path d="M764.23,56.99v29.35h17.26v20.22h-17.33c0,3.76,0,6.93,0,10.1,0,15.9-.03,31.81,.02,47.71,.02,6.97,.99,7.95,7.88,8.23,3.03,.12,6.06,.02,9.4,.02v21.08c-10.99-1.03-21.87-1.34-32.43-3.28-8.08-1.49-11.47-6.57-11.61-15.18-.34-21.14-.27-42.29-.36-63.44,0-1.99,0-3.98,0-6.4-5.13,.31-9.68,.59-14.58,.89v-19.76h14.55v-29.55h27.21Z"/>
  <path d="M677.42,190.97V85.24h27.99v105.73h-27.99Z"/>
  <path d="M962.47,11.12v13.16h-22.85V88.52h-16.21V24.45h-24.25V11.12h63.3Z"/>
  <path d="M287.36,149.32v-26.55c9.24,0,18.35,0,27.46,0s18.05,0,27.52,0v26.55h-54.98Z"/>
  <path d="M705.44,72.5h-27.98v-24.91h27.98v24.91Z"/>
</svg>